<?xml version="1.0" standalone="no"?>
<!DOCTYPE svg PUBLIC "-//W3C//DTD SVG 20010904//EN"
 "http://www.w3.org/TR/2001/REC-SVG-20010904/DTD/svg10.dtd">
<svg version="1.0" xmlns="http://www.w3.org/2000/svg"
 width="300.000000pt" height="140.000000pt" viewBox="0 0 300.000000 140.000000"
 preserveAspectRatio="xMidYMid meet">
<metadata>
Created by potrace 1.16, written by Peter Selinger 2001-2019
</metadata>
<g transform="translate(0.000000,140.000000) scale(0.027347,-0.044444)"
fill="#000000" stroke="none">
<path d="M0 1575 l0 -1575 5485 0 5485 0 0 1575 0 1575 -707 0 -708 -1 -94
-59 c-52 -33 -88 -60 -80 -60 7 0 168 25 357 56 188 32 345 55 348 52 6 -6
864 -2575 864 -2587 0 -8 -76 -23 -585 -112 -1296 -227 -2584 -360 -3960 -410
-410 -14 -1407 -14 -1820 0 -1327 48 -2620 179 -3850 391 -390 68 -689 122
-694 126 -1 1 191 586 429 1298 316 949 436 1296 447 1296 8 0 166 -25 350
-55 185 -31 340 -54 345 -53 4 2 -33 29 -84 61 l-93 57 -717 0 -718 0 0 -1575z"/>
<path d="M2056 3142 c28 -25 630 -367 901 -512 67 -36 120 -66 119 -68 -5 -4
-438 43 -716 79 -275 35 -759 105 -1048 152 -182 30 -204 32 -211 18 -18 -34
-683 -2043 -678 -2047 18 -18 1047 -181 1547 -244 1218 -156 2290 -223 3535
-223 1227 0 2260 64 3460 214 517 64 1603 234 1622 253 5 4 -660 2013 -678
2047 -7 14 -29 12 -211 -18 -339 -56 -656 -102 -982 -143 -344 -44 -777 -92
-782 -87 -2 2 58 36 134 77 222 119 463 254 685 384 l209 121 -315 3 -315 2
-153 -66 c-144 -61 -385 -160 -419 -171 -8 -3 41 49 110 116 l125 121 -280 -3
-280 -3 -130 -51 c-110 -43 -275 -97 -275 -89 0 1 47 33 105 71 l104 70 -869
3 c-479 1 -1263 1 -1743 0 l-872 -3 109 -73 c67 -45 98 -70 80 -66 -52 12
-268 86 -338 115 l-68 29 -272 0 -271 0 55 -53 c30 -29 90 -85 134 -124 l79
-72 -134 53 c-74 29 -209 85 -300 124 l-165 72 -309 0 c-170 0 -305 -4 -299
-8z m2194 -981 c0 -5 -10 -16 -22 -24 -22 -15 -21 -16 30 -16 28 -1 52 -5 52
-9 0 -9 -94 -67 -133 -81 -17 -7 -141 -11 -322 -11 -274 0 -295 -1 -304 -18
-8 -15 -61 -211 -61 -226 0 -2 109 -6 243 -8 274 -4 280 -5 373 -84 86 -73 87
-86 29 -306 -26 -101 -53 -195 -61 -209 -22 -43 -102 -107 -160 -129 -53 -19
-76 -20 -587 -20 l-532 0 30 20 30 20 -57 0 c-32 0 -58 4 -58 10 0 5 33 27 73
50 l72 40 296 0 c220 0 299 3 312 13 9 7 28 61 45 130 l30 117 -238 0 c-154 0
-249 4 -271 12 -56 19 -155 95 -170 130 -19 47 -15 79 35 269 51 192 66 220
150 277 90 61 90 61 659 61 290 1 517 -3 517 -8z m1235 -2 c27 -7 68 -31 109
-65 96 -79 99 -95 51 -281 -20 -81 -42 -157 -48 -170 l-10 -23 -240 0 c-226 0
-239 1 -244 19 -3 11 -17 21 -35 25 -30 6 -31 7 -25 54 3 26 22 98 41 160 20
63 36 120 36 128 0 20 -152 20 -170 -1 -10 -12 -230 -813 -230 -837 0 -15 157
-9 169 6 7 8 34 94 60 191 27 97 54 182 60 188 8 8 80 13 231 15 221 3 260 -2
260 -33 0 -7 14 -16 30 -20 17 -4 30 -12 30 -18 0 -7 -18 -77 -40 -155 -54
-198 -76 -232 -190 -293 l-45 -24 -459 -3 c-505 -3 -484 -5 -573 60 -61 45
-82 73 -89 119 -6 43 187 776 217 825 35 57 121 115 196 133 57 13 855 13 908
0z m1445 -3 c49 -17 149 -94 166 -128 8 -15 14 -44 14 -65 0 -46 -185 -744
-211 -794 -25 -50 -91 -105 -156 -129 -51 -19 -78 -20 -499 -20 -489 0 -469
-2 -563 65 -59 43 -84 82 -83 134 1 41 187 753 207 791 31 59 133 132 208 150
18 5 223 8 457 9 320 0 434 -3 460 -13z m1490 0 c49 -17 149 -94 166 -128 8
-15 14 -45 14 -67 0 -45 -101 -435 -124 -480 -33 -63 -168 -151 -231 -151 -23
0 -19 -16 45 -160 33 -74 60 -138 60 -142 0 -5 -110 -8 -245 -8 -212 0 -246 2
-252 15 -3 9 -20 22 -37 29 -28 12 -35 24 -71 130 -22 64 -43 116 -46 116 -16
0 -28 -32 -54 -140 -15 -63 -32 -123 -37 -133 -8 -15 -30 -17 -253 -17 -238 0
-245 1 -245 20 0 14 -7 20 -24 20 -13 0 -28 6 -33 13 -7 8 29 158 113 472 68
253 126 474 130 492 5 27 0 38 -35 76 -22 24 -38 47 -34 50 3 4 265 7 582 7
440 -1 584 -4 611 -14z m1468 -13 c2 -15 11 -23 30 -25 36 -4 43 -47 13 -77
-20 -20 -31 -21 -321 -21 -275 0 -300 -1 -309 -17 -8 -16 -91 -321 -91 -336 0
-4 120 -7 268 -7 267 -1 267 -1 243 -20 l-23 -20 45 0 c25 0 48 -4 51 -9 3 -5
-23 -27 -57 -50 l-63 -41 -241 0 c-268 0 -264 1 -282 -68 -6 -20 -24 -89 -40
-152 -17 -63 -31 -121 -31 -127 0 -10 60 -13 265 -13 146 0 265 -3 265 -8 0
-4 -10 -14 -22 -22 -22 -14 -21 -15 32 -20 l55 -5 -65 -42 -65 -43 -498 0
c-491 0 -499 0 -504 20 -4 13 -14 20 -29 20 -14 0 -27 7 -31 15 -3 9 51 229
121 489 69 260 126 481 126 490 0 9 -18 36 -40 60 -22 23 -37 46 -33 50 4 3
281 5 617 4 l611 -3 3 -22z m-7316 -290 c14 -7 53 -32 85 -56 98 -75 104 -99
58 -274 -39 -152 -63 -197 -127 -241 -88 -60 -117 -65 -422 -71 -275 -6 -279
-6 -294 -28 l-14 -23 338 0 339 -1 -30 -24 -30 -25 60 0 60 0 -25 -20 c-14
-11 -52 -34 -86 -51 l-60 -30 -460 3 c-510 3 -468 -2 -576 75 -54 39 -78 77
-78 123 0 47 117 478 140 515 36 59 137 121 219 135 74 13 871 7 903 -7z"/>
<path d="M6383 2008 c-6 -7 -59 -195 -118 -418 -59 -223 -110 -411 -112 -417
-7 -19 151 -18 169 1 8 7 33 85 56 172 23 88 73 275 110 417 l69 257 -82 0
c-54 0 -86 -4 -92 -12z"/>
<path d="M7871 2002 c-9 -17 -141 -505 -141 -523 0 -5 38 -9 85 -9 l84 0 20
68 c11 37 36 130 56 207 20 77 45 170 55 208 l19 67 -84 0 c-70 0 -86 -3 -94
-18z"/>
<path d="M2022 1703 c-13 -12 -32 -66 -57 -163 -21 -80 -40 -153 -42 -162 -5
-16 3 -18 73 -18 44 0 84 4 91 8 7 4 31 77 53 162 23 85 44 163 46 173 5 15
-3 17 -69 17 -57 0 -79 -4 -95 -17z"/>
</g>
</svg>
